<svg xmlns="http://www.w3.org/2000/svg" width="1087.84" height="943.67" viewBox="0 0 1087.84 943.67"><title>logo</title><g id="Layer_2" data-name="Layer 2"><g id="Layer_1-2" data-name="Layer 1"><path d="M242.1,909.28l-4.36-3.95a139.38,139.38,0,0,1-16.24-16.44l-4.15-5.13c-6-8-10-14.7-12.68-20.9L5.8,394.87c-7.3-17.16-7.71-33.2-1.21-46.42L106.06,142.5,299.79,598.38c.14.34.38.65.53,1A128.84,128.84,0,0,0,309.24,616c2.63,4.4,5.54,8.61,8.63,12.79.14.18.22.35.36.54l1.44,1.79c13.53,17.65,31.08,32.71,50.69,45L276.69,929.58l-5.6-2.52A164.24,164.24,0,0,1,242.1,909.28Z" fill="#717e90"/><path d="M943.77,878.64c-1.47,2.92-3.72,6.1-10,13.73l-5.61,3.18a64.64,64.64,0,0,1-11.73,6.3l-5.76,2.56a91.35,91.35,0,0,1-23.47,4.66L344.08,943.5a127.48,127.48,0,0,1-19.32-.51l-1.52-.23L414,697.25c5.43,1.88,10.83,3.76,16.4,5.16.91.24,1.86.54,2.75.75,2.62.65,5.32,1.2,8.14,1.73,4,.77,8,1.49,12,2h0l6.51.87c2.24.2,4.41,0,6.64.14,3.17.17,6.33.73,9.5.73,3.56,0,7.12-.1,10.63-.31L1029.81,674a145.63,145.63,0,0,0,15.73-1.94Z" fill="#717e90"/><path d="M1082.08,548.83l-198.9-468C864,35.71,804.76,0,751,0c-2.51,0-5,.1-7.48.26h0L200.31,34.64c-24.84,1.58-44.6,11.37-54.18,26.89a42.65,42.65,0,0,0-3.8,8.7c-.37,1.06-.83,2.09-1.12,3.18-.33,1.28-.35,2.67-.57,4a50.85,50.85,0,0,0-.51,12.39c.11,1.58.23,3.15.48,4.75a71.62,71.62,0,0,0,4.64,16.74c0,.09.05.18.09.27l198.89,468c.11.24.29.51.39.75a97.66,97.66,0,0,0,6.3,11.42c1.79,2.8,3.62,5.62,6,8.79l4,5a139.79,139.79,0,0,0,16.42,16.65,161.39,161.39,0,0,0,33.35,21.72l12.12,5.54c5.89,2.3,10.14,3.69,14.42,4.92l7.15,2c.27.06.54.08.81.15,4.38,1,8.62,1.74,12.9,2.37v0a128.13,128.13,0,0,0,25.41,1.35l543.17-34.38a91.52,91.52,0,0,0,23.22-4.66l.14,0,5.79-2.47a66.91,66.91,0,0,0,11.74-6.31,49,49,0,0,0,6.09-4.71c2.73-2.84,4.51-4.92,6-6.75.18-.24.43-.44.6-.69a25.92,25.92,0,0,0,1.76-2.75C1089.7,583.86,1089.86,567.17,1082.08,548.83ZM606.51,450.51c-15.68,1-33.57-9.24-39.31-22.75l-28.71-67.55L462.22,365l28.71,67.56c5.74,13.51-2.38,25.38-18.06,26.37-16.05,1-33.57-9.23-39.31-22.74L355.14,251.69c-5.74-13.51,2.37-25.38,18.06-26.38s33.56,9.24,39.31,22.75l28.7,67.55,76.28-4.83-28.71-67.55c-5.74-13.51,2.38-25.39,18.06-26.38s33.57,9.23,39.31,22.74l78.42,184.54C630.31,437.64,622.19,449.51,606.51,450.51ZM854,435.14A41.23,41.23,0,0,1,824.77,425L732,348l-22.08,1.4,28.71,67.56c5.74,13.51-2,25.36-17.73,26.35-16,1-33.55-9.23-39.29-22.74l-78.3-184.24c-5.86-13.81,2.25-25.68,17.94-26.68l80.18-5.07C746.82,202,796.61,231.29,813.05,270c12,28.25,3.47,54.66-21.07,67.55l70.31,58.63c8.59,7.32,13,16.83,11.28,24.83S864.3,434.49,854,435.14Z" fill="#717e90"/><path d="M722,253.68l-51,3.22,17.92,43,51.32-3.25c13.53-.85,20.89-11.11,15.8-23.08C751.08,261.93,735.49,252.82,722,253.68Z" fill="#717e90"/></g></g></svg>
